{"title":"Sukiyaki.Western.Django.2007.DVDRIP.XviD-ZEKTORM","uid":4536263,"size":738498692,"categoryP":"video","categoryS":"movies","magnet":"?xt=urn:btih:fea67fc780e9d6f140da25470db7bfdced53c0b2&amp;dn=Sukiyaki.Western.Django.2007.DVDRIP.XviD-ZEKTORM&amp;tr=udp%3A%2F%2Ftracker.openbittorrent.com%3A80&amp;tr=udp%3A%2F%2Fopen.demonii.com%3A1337&amp;tr=udp%3A%2F%2Ftracker.coppersurfer.tk%3A6969&amp;tr=udp%3A%2F%2Fexodus.desync.com%3A6969","seeders":6,"leechers":1,"uploader":"blowley","files":4,"time":1227743819,"description":"Title                            : Sukiyaki Western Django \nYear                             : 2007\nGenre                            : Action | Western\niMDB Rate                        : User Rating: 6.8/10   2,251 votes   \niMDB URL                         : http://www.imdb.com/title/tt0906665/\nAwards                           : 3 wins &amp; 1 nomination\n\nComplete name                    : Sukiyaki.Western.Django.2007.DVDRIP.XviD-ZEKTORM.avi\nFormat                           : AVI\nFormat/Info                      : Audio Video Interleave\nFile size                        : 700 MiB\nDuration                         : 1h 38mn\nOverall bit rate                 : 993 Kbps\nSubtitles                        : English, Spanish (Format: VobSub)\nSource                           : DVD NTSC\n\nVideo\nFormat                           : MPEG-4 Visual\nFormat profile                   : Streaming Video@L1\nCodec ID                         : XVID\nDuration                         : 1h 38mn\nBit rate                         : 874 Kbps\nWidth                            : 720 pixels\nHeight                           : 320 pixels\nDisplay aspect ratio             : 2.25\nFrame rate                       : 23.976 fps\nResolution                       : 24 bits\nColorimetry                      : 4:2:0\nScan type                        : Progressive\nBits/(Pixel*Frame)               : 0.158\nStream size                      : 617 MiB (88%)\nWriting library                  : XviD 1.2.0.dev47 (UTC 2006-11-01)\n\nAudio\nFormat                           : MPEG Audio\nFormat version                   : Version 1\nFormat profile                   : Layer 3\nCodec ID                         : 55\nCodec ID/Hint                    : MP3\nDuration                         : 1h 38mn\nBit rate mode                    : Constant\nBit rate                         : 112 Kbps\nMinimum bit rate                 : 112 Kbps\nChannel(s)                       : 2 channels\nSampling rate                    : 44.1 KHz\nResolution                       : 16 bits\nStream size                      : 79.0 MiB (11%)\nWriting library                  : LAME3.97 \nEncoding settings                : CBR","torrent":{"xt":"urn:btih:fea67fc780e9d6f140da25470db7bfdced53c0b2","amp;dn":"Sukiyaki.Western.Django.2007.DVDRIP.XviD-ZEKTORM","amp;tr":["udp%3A%2F%2Ftracker.openbittorrent.com%3A80","udp%3A%2F%2Fopen.demonii.com%3A1337","udp%3A%2F%2Ftracker.coppersurfer.tk%3A6969","udp%3A%2F%2Fexodus.desync.com%3A6969"],"infoHash":"fea67fc780e9d6f140da25470db7bfdced53c0b2","infoHashBuffer":{"type":"Buffer","data":[254,166,127,199,128,233,214,241,64,218,37,71,13,183,191,220,237,83,192,178]},"announce":[],"urlList":[]}}